<svg width="204" height="60" viewBox="0 0 204 60" fill="none" xmlns="http://www.w3.org/2000/svg">
<path d="M11.7569 52.4907C12.0254 52.4893 12.294 52.4874 12.5625 52.485C12.9441 52.4817 13.3256 52.4806 13.7072 52.4801C13.8224 52.4788 13.9377 52.4774 14.0565 52.476C14.6965 52.478 15.1536 52.5038 15.63 52.9523C15.7094 53.469 15.7142 53.8247 15.3837 54.2548C14.7669 54.6713 14.1762 54.7304 13.4341 54.728C13.3445 54.7286 13.2549 54.7291 13.1626 54.7297C12.8681 54.7312 12.5737 54.7311 12.2792 54.7309C12.0737 54.7313 11.8682 54.7318 11.6627 54.7323C11.2327 54.7331 10.8028 54.7331 10.3729 54.7325C9.82228 54.7319 9.27174 54.7337 8.72117 54.7362C8.29709 54.7378 7.87302 54.7379 7.44894 54.7376C7.24594 54.7377 7.04294 54.7382 6.83994 54.7393C6.55614 54.7407 6.27244 54.7399 5.98865 54.7387C5.90512 54.7395 5.8216 54.7403 5.73554 54.7412C5.10365 54.735 4.74193 54.5805 4.28588 54.1798C4.08233 53.7966 4.13396 53.5731 4.2714 53.1706C5.84202 51.8812 9.80772 52.4994 11.7569 52.4907Z" fill="url(#paint0_linear_435_110)"/>
<path d="M4.61914 49.3518C4.96464 49.3146 4.96464 49.3146 5.40239 49.3198C5.47924 49.3203 5.55609 49.3208 5.63527 49.3212C5.88096 49.3231 6.12653 49.3272 6.37218 49.3313C6.53864 49.333 6.70511 49.3345 6.87157 49.3358C7.27983 49.3394 7.68803 49.3451 8.09626 49.3518C8.22212 50.084 8.22212 50.084 8.13248 50.3679C7.94439 50.5955 7.80074 50.6621 7.51674 50.7702C7.05199 50.8189 6.58598 50.8106 6.11864 50.8111C5.99098 50.8138 5.86331 50.8164 5.73177 50.8192C5.60948 50.8196 5.48719 50.82 5.36119 50.8205C5.24943 50.8214 5.13766 50.8223 5.02251 50.8232C4.73504 50.7702 4.73504 50.7702 4.52431 50.5697C4.3409 50.2538 4.34722 50.034 4.38733 49.6791C4.46382 49.5711 4.54032 49.4631 4.61914 49.3518Z" fill="url(#paint1_linear_435_110)"/>
<path d="M50.1693 46.7333C47.5759 48.5414 44.788 50.122 41.9329 51.534C41.8172 51.5917 41.7015 51.6493 41.5823 51.7086C40.8658 52.0575 40.1416 52.3498 39.385 52.6133C39.0563 52.7293 38.7345 52.8554 38.4123 52.9865C38.1592 53.0853 37.9056 53.1829 37.6516 53.2798C37.5729 53.31 37.4942 53.3402 37.4131 53.3713C34.69 54.4002 31.7677 55.1383 28.8647 55.5437C28.6712 55.5714 28.6712 55.5714 28.4739 55.5997C27.2738 55.7465 26.468 55.5652 25.4672 54.9368C25.3903 54.8903 25.3133 54.8439 25.2341 54.796C24.726 54.4866 24.2333 54.1591 23.7432 53.8253C23.7814 53.6813 23.8197 53.5373 23.8591 53.3889C24.6856 53.3746 25.4984 53.407 26.322 53.4741C27.485 53.538 28.6005 53.4585 29.7557 53.3207C29.9009 53.3053 30.0461 53.29 30.1958 53.2742C32.3276 53.0218 34.3508 52.3366 36.3622 51.65C36.5721 51.5789 36.782 51.5077 36.9918 51.4366C39.9843 50.4189 42.976 49.3767 45.8808 48.1517C46.0633 48.075 46.2457 47.9983 46.4282 47.9216C46.5629 47.8649 46.5629 47.8649 46.7003 47.8071C47.4432 47.4949 48.1865 47.184 48.9378 46.8902C49.075 46.836 49.2121 46.7819 49.3534 46.7261C49.6988 46.6262 49.8411 46.6062 50.1693 46.7333Z" fill="url(#paint2_linear_435_110)"/>
<path d="M2.58356 45.7105C3.03606 46.1053 3.20262 46.4311 3.27899 47.0062C3.20354 47.5744 2.88412 48.0067 2.41695 48.37C1.98509 48.5055 1.59058 48.5375 1.14201 48.4791C0.696559 48.2576 0.336335 48.0298 0.0988705 47.6063C-0.0671154 46.9813 -0.0405855 46.6059 0.305325 46.046C0.842989 45.3403 1.81267 45.3675 2.58356 45.7105Z" fill="url(#paint3_linear_435_110)"/>
<path d="M71.742 44.217C71.9594 44.442 71.9594 44.442 71.9933 44.6947C71.8686 45.7706 70.6139 46.8161 69.8731 47.6061C69.783 47.7032 69.6929 47.8002 69.6001 47.9002C68.7215 48.8342 67.8143 49.7058 66.765 50.4702C66.4904 50.6695 66.4904 50.6695 66.1931 50.968C65.51 51.5932 64.7348 51.6075 63.8316 51.684C62.7799 51.7855 61.8803 51.9104 60.9485 52.4068C61.0692 52.3753 61.1899 52.3438 61.3143 52.3114C62.4908 52.0194 63.5592 51.915 64.7733 51.9704C64.6745 52.4316 64.4394 52.6447 64.0779 52.9524C64.0048 53.0178 63.9318 53.0832 63.8565 53.1505C63.2778 53.6558 62.6682 54.0726 62.0057 54.4752C61.6569 54.6901 61.3219 54.9176 60.9847 55.1481C59.058 56.4084 56.7475 57.7333 54.4579 58.2986C54.1984 58.2509 54.1984 58.2509 53.9942 58.1895C54.8378 57.2167 55.8586 56.4685 56.8918 55.68C56.4573 55.8656 56.0763 56.1159 55.6893 56.3756C55.6185 56.4229 55.5476 56.4702 55.4746 56.5189C54.8788 56.9238 54.3242 57.3658 53.7897 57.8404C52.8428 58.6463 51.6258 58.9506 50.4157 59.2465C50.2904 59.2786 50.165 59.3108 50.0358 59.3439C48.7335 59.669 47.4624 59.8719 46.1128 59.8261C46.1128 59.7541 46.1128 59.6821 46.1128 59.6079C46.3174 59.4702 46.3174 59.4702 46.6054 59.3147C46.7109 59.2569 46.8165 59.1992 46.9253 59.1397C47.0397 59.0782 47.154 59.0167 47.2718 58.9533C47.5069 58.8249 47.7419 58.6963 47.9767 58.5675C48.0934 58.5037 48.21 58.4398 48.3302 58.374C48.7824 58.1231 49.2266 57.8613 49.6696 57.5962C50.1468 57.311 50.6219 57.041 51.1256 56.7984C52.6009 56.0608 53.9962 55.0589 55.2692 54.0434C53.8017 54.6406 52.4382 55.3628 51.0805 56.1531C50.941 56.2342 50.8015 56.3154 50.662 56.3965C50.5927 56.4368 50.5234 56.4771 50.452 56.5186C49.969 56.7983 49.4811 57.0687 48.9886 57.3333C48.9212 57.3695 48.8538 57.4058 48.7843 57.4431C48.4658 57.614 48.1467 57.7837 47.8268 57.9524C46.8959 58.4496 46.0117 59.0011 45.2 59.6603C44.6006 59.9347 43.987 59.8756 43.3311 59.8602C43.1963 59.8592 43.0615 59.8581 42.9227 59.857C42.3108 59.8494 41.7318 59.822 41.1289 59.717C41.4449 59.3732 41.8464 59.1709 42.259 58.9464C42.9589 58.5588 43.6397 58.1512 44.3116 57.7219C45.3947 57.0312 46.5054 56.393 47.6413 55.7823C47.9089 55.6378 48.1764 55.4931 48.444 55.3485C48.5112 55.3122 48.5783 55.2759 48.6475 55.2385C49.3066 54.8821 49.9626 54.5209 50.6185 54.1594C51.6302 53.6029 52.6442 53.0503 53.661 52.5023C53.7289 52.4657 53.7969 52.4291 53.8669 52.3913C54.9156 51.8268 55.9715 51.2757 57.0368 50.7393C57.1336 50.6903 57.2304 50.6413 57.3301 50.5908C57.4138 50.5488 57.4976 50.5067 57.5839 50.4634C57.832 50.3267 58.056 50.1727 58.2827 50.0065C56.0967 50.7903 54.0448 51.6534 52.078 52.848C51.2604 53.3362 50.3994 53.7425 49.538 54.1572C48.7509 54.5374 47.9783 54.9338 47.2139 55.3527C46.3268 55.8388 45.4256 56.2903 44.5118 56.7302C43.453 57.241 42.4401 57.7894 41.4419 58.3979C40.9237 58.7106 40.3945 59.0035 39.8539 59.2806C39.7752 59.3212 39.6965 59.3619 39.6153 59.4038C38.1548 60.0412 35.8113 59.2578 34.3752 58.8037C33.3907 58.4593 33.3907 58.4593 33.2474 58.1895C33.7088 58.0776 34.168 57.9697 34.636 57.8852C37.792 57.3049 41.331 55.8637 43.9106 54.0434C43.9106 53.9714 43.9106 53.8994 43.9106 53.8252C43.3254 53.8846 42.867 54.0744 42.3531 54.3298C42.1866 54.4101 42.02 54.4902 41.8533 54.5702C41.7701 54.6104 41.6869 54.6505 41.6011 54.6919C33.8787 58.3951 33.8787 58.3951 31.4296 57.7497C31.2839 57.6979 31.1389 57.6444 30.9945 57.5894C30.9167 57.5609 30.8389 57.5324 30.7587 57.5031C29.8298 57.1556 28.9297 56.7469 28.0317 56.3347C28.0317 56.2267 28.0317 56.1187 28.0317 56.0074C28.1789 56.0107 28.3261 56.0141 28.4777 56.0176C29.0926 56.0167 29.6794 55.941 30.2846 55.8437C30.4022 55.8248 30.5197 55.8059 30.6409 55.7865C33.234 55.3519 35.8103 54.8191 38.2313 53.8252C38.3545 53.7757 38.4777 53.7261 38.6046 53.675C40.8158 52.7839 42.8984 51.8146 44.9216 50.5925C50.6508 47.1345 56.5265 44.2038 63.3426 43.2792C63.5884 43.2454 63.833 43.2076 64.0779 43.1681C66.61 42.7905 69.5018 42.9095 71.742 44.217ZM60.5645 46.5423C60.4712 46.5639 60.3779 46.5855 60.2817 46.6077C58.8171 46.9474 57.3738 47.3126 55.9646 47.8243C55.8039 47.8827 55.8039 47.8827 55.64 47.9422C53.4094 48.764 51.2433 49.7371 49.177 50.8789C48.6013 51.1948 48.0171 51.4958 47.4328 51.7972C47.1849 51.9259 46.9385 52.057 46.6923 52.1886C46.6037 52.2344 46.515 52.2802 46.4237 52.3274C46.3387 52.3734 46.2537 52.4195 46.1662 52.4669C46.0892 52.5078 46.0121 52.5486 45.9327 52.5907C45.8774 52.638 45.8221 52.6854 45.7651 52.7342C45.7651 52.8782 45.7651 53.0222 45.7651 53.1706C46.2903 53.1133 46.6373 52.9915 47.0835 52.7273C47.6042 52.4308 48.1303 52.1599 48.6771 51.909C49.5279 51.5172 50.3589 51.0941 51.1908 50.6679C56.4989 47.9669 62.1415 46.6251 68.1345 46.0786C68.1345 46.0066 68.1345 45.9346 68.1345 45.8604C67.4632 45.7532 66.8083 45.7277 66.1279 45.724C66.0275 45.7218 65.927 45.7195 65.8235 45.7172C64.0444 45.7076 62.2814 46.1431 60.5645 46.5423Z" fill="url(#paint4_linear_435_110)"/>
<path d="M1.60571 35.6045C1.68221 35.6045 1.75871 35.6045 1.83752 35.6045C1.89938 35.7115 1.96123 35.8186 2.02496 35.9288C3.34188 38.1849 4.92247 40.1866 6.82139 42.0418C6.89869 42.1175 6.97599 42.1933 7.05564 42.2713C8.11131 43.3 9.15851 44.2844 10.4144 45.0968C10.4834 45.1423 10.5523 45.1879 10.6233 45.2348C16.6747 49.2026 23.6941 50.4212 30.9359 49.297C34.6953 48.6369 38.2487 47.2393 41.7085 45.7515C41.8443 45.6932 41.9801 45.635 42.1201 45.575C44.9674 44.3505 47.787 43.0593 50.5462 41.6668C52.6593 40.6056 54.8583 39.7171 57.1237 38.9868C57.2635 38.9417 57.4032 38.8965 57.5472 38.85C58.6099 38.5167 59.6698 38.2947 60.7749 38.1264C61.0372 38.0864 61.2992 38.0445 61.5611 38.0023C66.706 37.186 71.8171 37.862 76.1261 40.743C76.9056 41.278 77.6351 41.8517 78.3342 42.4782C78.4361 42.562 78.4361 42.562 78.5402 42.6474C80.6606 44.4651 81.9277 47.4016 82.073 50.0463C82.1107 51.0878 82.0058 51.9771 81.5795 52.9525C81.5389 53.0486 81.4982 53.1446 81.4563 53.2436C80.6656 54.9106 79.0324 55.983 77.291 56.6622C76.8653 56.7818 76.4584 56.8463 76.0161 56.8804C75.9181 56.8892 75.8201 56.8981 75.7191 56.9072C73.9538 56.9888 72.4326 56.3778 71.1192 55.312C70.1554 54.4617 69.472 53.556 69.3951 52.2749C69.358 50.8553 69.8498 49.4981 70.9045 48.4527C71.6633 47.8553 72.5092 47.4957 73.5061 47.5577C74.626 47.7344 75.5047 48.2694 76.1841 49.1278C76.5209 49.6774 76.6307 50.2583 76.4797 50.8795C76.1179 51.5195 75.5951 52.0593 74.8571 52.2979C74.0918 52.4856 73.3945 52.6255 72.6549 52.2979C71.989 51.8621 71.5784 51.4087 71.3799 50.6613C71.3034 50.6253 71.2269 50.5893 71.1481 50.5522C71.1387 50.8636 71.1318 51.1749 71.1264 51.4864C71.1235 51.5737 71.1206 51.6609 71.1176 51.7509C71.105 52.7153 71.4819 53.4551 72.1913 54.1527C73.0708 54.8297 74.1921 55.1656 75.3275 55.1206C76.505 54.9499 77.4837 54.4449 78.2092 53.5509C79.0915 52.3222 79.203 51.1016 78.9209 49.652C78.6014 48.4673 77.8798 47.3157 76.9682 46.4479C76.8274 46.297 76.8274 46.297 76.8274 46.0788C76.7199 46.0383 76.7199 46.0383 76.6101 45.9969C76.317 45.8347 76.2805 45.7038 76.132 45.4241C75.979 45.3485 75.8243 45.2761 75.6684 45.2059C75.5386 45.1216 75.4111 45.0343 75.2858 44.9442C73.0445 43.3719 70.5944 42.1358 67.7869 41.8236C67.6781 41.8115 67.5694 41.7994 67.4573 41.7869C66.4862 41.696 65.5161 41.6964 64.5416 41.7145C64.4643 41.7153 64.387 41.7161 64.3074 41.7169C63.1332 41.7327 61.996 41.878 60.8399 42.0691C60.7118 42.0901 60.5836 42.1111 60.4516 42.1327C58.5251 42.4671 56.7003 42.9862 54.8765 43.6537C54.5669 43.767 54.2566 43.8785 53.9461 43.9898C52.7074 44.4365 51.4918 44.9202 50.2837 45.4356C43.957 48.1198 37.1313 50.9936 30.234 51.9706C30.0673 51.995 30.0673 51.995 29.8973 52.02C23.7889 52.8997 17.463 51.7763 12.153 48.8065C12.0774 48.7652 12.0019 48.7239 11.9241 48.6813C10.2708 47.7753 8.83047 46.6415 7.424 45.4254C7.16201 45.1998 6.89421 44.9815 6.62581 44.7627C6.14381 44.358 5.72329 43.9304 5.31464 43.4602C5.21798 43.3515 5.12131 43.2428 5.02171 43.1308C3.15344 40.9923 1.7493 38.4159 1.60571 35.6045Z" fill="url(#paint5_linear_435_110)"/>
<path d="M2.88057 24.9119C3.06048 25.2947 3.15032 25.6259 3.1907 26.0421C3.20261 26.1539 3.21451 26.2657 3.22678 26.3808C3.23923 26.4992 3.25168 26.6175 3.2645 26.7394C3.38964 27.8009 3.57788 28.7818 3.94849 29.7901C4.05309 30.0768 4.15169 30.3651 4.25059 30.6536C4.95589 32.6762 5.87167 34.2738 7.28492 35.9317C7.33983 35.9962 7.39474 36.0606 7.45131 36.127C8.54222 37.3963 9.73675 38.5295 11.1098 39.5322C11.1786 39.583 11.2475 39.6338 11.3185 39.6861C15.3807 42.6705 20.0763 43.943 25.2138 43.9511C25.3094 43.9515 25.4049 43.952 25.5033 43.9525C27.686 43.9571 29.7438 43.5877 31.8493 43.0714C31.9463 43.0478 32.0433 43.0243 32.1432 43C35.5027 42.1803 38.6165 40.9535 41.7152 39.4947C42.0401 39.342 42.3657 39.1908 42.6913 39.0395C43.9768 38.4381 45.2164 37.7898 46.4386 37.0811C46.9284 36.7982 47.4312 36.5516 47.9496 36.3182C48.3309 36.1426 48.7038 35.9553 49.0778 35.7663C50.0445 35.2784 51.0222 34.8323 52.0263 34.4166C52.5263 34.2094 53.0131 33.9935 53.4944 33.7495C58.9762 31.1295 65.7446 30.2939 71.6393 32.0695C72.1809 32.2444 72.7093 32.4436 73.2343 32.6585C73.3098 32.6892 73.3853 32.7199 73.4631 32.7515C75.6047 33.6451 77.6513 34.8808 79.3772 36.3681C79.5059 36.4659 79.6347 36.5633 79.7639 36.6605C79.9167 36.7858 79.9167 36.7858 80.0727 36.9136C80.0727 36.9857 80.0727 37.0577 80.0727 37.1319C80.2256 37.2039 80.3786 37.2759 80.5363 37.3501C80.5363 37.4221 80.5363 37.4941 80.5363 37.5683C80.6893 37.6403 80.8423 37.7123 80.9999 37.7865C80.9999 37.8585 80.9999 37.9305 80.9999 38.0047C81.0764 38.0047 81.1529 38.0047 81.2317 38.0047C81.3922 38.1873 81.3922 38.1873 81.5767 38.4446C81.6445 38.539 81.7122 38.6334 81.782 38.7307C81.8897 38.8844 81.8897 38.8844 81.9996 39.0412C82.0728 39.1455 82.146 39.2498 82.2214 39.3573C83.4546 41.141 84.345 42.9583 84.5929 45.0967C84.603 45.1777 84.613 45.2587 84.6234 45.3422C84.7005 45.9987 84.7271 46.6458 84.7233 47.3061C84.7229 47.4055 84.7225 47.5049 84.7221 47.6073C84.7132 48.7142 84.7014 49.8114 84.3611 50.8794C84.2846 50.8794 84.2081 50.8794 84.1293 50.8794C84.1071 50.8057 84.085 50.7321 84.0622 50.6563C83.9596 50.3168 83.8561 49.9775 83.7526 49.6383C83.7178 49.5225 83.683 49.4068 83.6471 49.2875C83.3362 48.2724 82.978 47.3233 82.4052 46.4128C82.1188 45.9532 81.8384 45.492 81.5722 45.0217C79.3419 41.1764 75.5797 38.2555 71.148 36.9136C69.069 36.3562 66.9874 36.106 64.8313 36.1158C64.6948 36.1161 64.6948 36.1161 64.5556 36.1164C63.0233 36.122 61.5292 36.2038 60.0213 36.4772C59.9234 36.4948 59.8256 36.5123 59.7249 36.5304C55.6799 37.2876 51.928 38.9126 48.3149 40.7324C48.1424 40.8181 47.9698 40.9036 47.797 40.989C46.5385 41.6123 45.2928 42.2606 44.0772 42.9555C39.3272 45.5708 34.0177 47.2074 28.6113 48.0426C28.5198 48.0571 28.4283 48.0715 28.334 48.0865C25.4278 48.5352 22.42 48.2348 19.5707 47.6061C19.437 47.5768 19.437 47.5768 19.3005 47.547C15.3814 46.665 12.0232 44.5006 9.02348 42.0417C8.87669 41.9237 8.87669 41.9237 8.72693 41.8034C8.15405 41.3369 7.65233 40.8443 7.16902 40.296C7.05562 40.1728 7.05562 40.1728 6.93993 40.0471C3.95299 36.7343 2.05168 32.9328 2.04026 28.5601C2.04003 28.4883 2.0398 28.4165 2.03956 28.3425C2.03867 27.2106 2.09933 26.1163 2.41695 25.021C2.53286 24.9119 2.53286 24.9119 2.88057 24.9119Z" fill="url(#paint6_linear_435_110)"/>
<path d="M4.15694 18.4302C4.33685 18.813 4.42669 19.1442 4.46707 19.5605C4.47898 19.6722 4.49088 19.784 4.50315 19.8991C4.5156 20.0175 4.52804 20.1358 4.54087 20.2577C4.666 21.3192 4.85425 22.3001 5.22486 23.3085C5.32945 23.5952 5.42806 23.8835 5.52696 24.1719C6.23225 26.1945 7.14803 27.7921 8.56129 29.45C8.6162 29.5145 8.6711 29.5789 8.72767 29.6454C9.81859 30.9146 11.0131 32.0478 12.3861 33.0505C12.455 33.1013 12.5239 33.1521 12.5949 33.2044C16.6571 36.1888 21.3527 37.4613 26.4902 37.4694C26.5857 37.4699 26.6813 37.4703 26.7797 37.4708C28.9623 37.4754 31.0201 37.1061 33.1257 36.5897C33.2227 36.5661 33.3197 36.5426 33.4196 36.5183C36.7791 35.6986 39.8928 34.4718 42.9915 33.013C43.3164 32.8603 43.642 32.7091 43.9677 32.5578C45.2531 31.9564 46.4927 31.3081 47.7149 30.5994C48.2048 30.3165 48.7075 30.07 49.2259 29.8366C49.6072 29.6609 49.9802 29.4736 50.3541 29.2846C51.3209 28.7967 52.2986 28.3506 53.3026 27.9349C53.8027 27.7277 54.2894 27.5118 54.7708 27.2679C60.2525 24.6478 67.021 23.8122 72.9156 25.5878C73.4572 25.7627 73.9857 25.9619 74.5107 26.1768C74.5862 26.2075 74.6617 26.2382 74.7394 26.2699C76.8811 27.1634 78.9277 28.3992 80.6536 29.8864C80.7822 29.9842 80.9111 30.0816 81.0402 30.1788C81.1931 30.3041 81.1931 30.3041 81.349 30.432C81.349 30.504 81.349 30.576 81.349 30.6502C81.502 30.7222 81.655 30.7942 81.8126 30.8684C81.8126 30.9404 81.8126 31.0124 81.8126 31.0866C81.9656 31.1586 82.1186 31.2306 82.2762 31.3048C82.2762 31.3768 82.2762 31.4488 82.2762 31.523C82.3527 31.523 82.4292 31.523 82.5081 31.523C82.6686 31.7057 82.6686 31.7057 82.853 31.9629C82.9208 32.0573 82.9886 32.1517 83.0584 32.249C83.1661 32.4027 83.1661 32.4027 83.2759 32.5595C83.3491 32.6639 83.4223 32.7682 83.4977 32.8756C84.7309 34.6593 85.6214 36.4766 85.8693 38.615C85.8793 38.696 85.8894 38.777 85.8998 38.8605C85.9769 39.5171 86.0035 40.1641 85.9997 40.8244C85.9993 40.9238 85.9989 41.0232 85.9985 41.1256C85.9896 42.2325 85.9778 43.3297 85.6375 44.3977C85.561 44.3977 85.4845 44.3977 85.4057 44.3977C85.3835 44.3241 85.3614 44.2504 85.3385 44.1746C85.236 43.8351 85.1325 43.4958 85.029 43.1566C84.9942 43.0408 84.9593 42.9251 84.9235 42.8058C84.6126 41.7907 84.2543 40.8416 83.6816 39.9311C83.3952 39.4715 83.1148 39.0103 82.8485 38.54C80.6183 34.6947 76.8561 31.7738 72.4244 30.432C70.3454 29.8745 68.2637 29.6243 66.1076 29.6341C65.9712 29.6344 65.9712 29.6344 65.832 29.6347C64.2997 29.6403 62.8056 29.7222 61.2976 29.9955C61.1998 30.0131 61.102 30.0307 61.0012 30.0487C56.9563 30.8059 53.2044 32.431 49.5913 34.2507C49.4188 34.3364 49.2461 34.4219 49.0734 34.5073C47.8149 35.1306 46.5691 35.7789 45.3536 36.4738C40.6036 39.0891 35.2941 40.7257 29.8876 41.5609C29.7961 41.5754 29.7046 41.5899 29.6104 41.6048C26.7042 42.0535 23.6963 41.7531 20.8471 41.1245C20.7133 41.0952 20.7133 41.0952 20.5769 41.0653C16.6578 40.1833 13.2995 38.0189 10.2998 35.56C10.1531 35.4421 10.1531 35.4421 10.0033 35.3217C9.43041 34.8552 8.9287 34.3626 8.44538 33.8143C8.33198 33.6911 8.33198 33.6911 8.21629 33.5654C5.22935 30.2526 3.32804 26.4511 3.31663 22.0784C3.3164 22.0066 3.31617 21.9348 3.31593 21.8608C3.31503 20.7289 3.3757 19.6346 3.69332 18.5393C3.80922 18.4302 3.80922 18.4302 4.15694 18.4302Z" fill="url(#paint7_linear_435_110)"/>
<path d="M83.4339 20.4385C83.942 20.6777 84.2604 20.922 84.477 21.4205C84.5605 22.1168 84.459 22.4942 84.0134 23.0571C83.5117 23.3824 83.1093 23.4541 82.5067 23.3844C82.0889 23.2336 81.7695 23.0269 81.4708 22.7093C81.2948 22.2708 81.2696 21.8832 81.3476 21.4205C81.8045 20.5604 82.4486 20.2913 83.4339 20.4385Z" fill="url(#paint8_linear_435_110)"/>
<path d="M78.8629 20.4114C79.3675 20.8498 79.3675 20.8498 79.4931 21.0933C79.4931 21.5665 79.4615 21.7777 79.102 22.1162C78.591 22.4139 78.113 22.4747 77.5228 22.4026C77.0776 22.2586 76.7124 22.0658 76.3637 21.7684C76.1913 21.4133 76.1967 21.1509 76.2478 20.766C76.849 20.0244 78.0258 20.0243 78.8629 20.4114Z" fill="url(#paint9_linear_435_110)"/>
<path d="M76.6751 16.2515C77.0663 16.2541 77.2714 16.3169 77.5734 16.5515C77.8936 16.8603 77.973 16.9438 78.0225 17.363C77.978 17.7905 77.8365 17.9522 77.5227 18.2563C77.1186 18.4465 76.6886 18.4277 76.2477 18.3654C75.8928 18.1404 75.8928 18.1404 75.6682 17.8199C75.5833 17.3316 75.6302 17.1184 75.8928 16.6879C76.2207 16.295 76.2207 16.295 76.6751 16.2515Z" fill="url(#paint10_linear_435_110)"/>
<path d="M81.3477 15.8559C81.6887 15.9978 81.7918 16.1175 82.0431 16.4014C82.1649 16.7017 82.2002 16.9551 82.159 17.2743C81.9309 17.6884 81.7599 17.8885 81.3477 18.1472C80.9865 18.2203 80.6656 18.2223 80.3046 18.1472C79.9831 17.9393 79.7878 17.7084 79.6091 17.3834C79.5174 16.8913 79.5686 16.6884 79.8265 16.2514C80.2479 15.7614 80.7106 15.7694 81.3477 15.8559Z" fill="url(#paint11_linear_435_110)"/>
<path d="M44.3002 1.3708C44.4403 1.37014 44.4403 1.37014 44.5833 1.36946C46.5207 1.36519 48.3728 1.53347 50.2547 1.98453C50.4002 2.01864 50.5456 2.05276 50.6955 2.08791C53.205 2.68417 55.624 3.49375 57.9479 4.569C58.0765 4.62681 58.2051 4.68461 58.3377 4.74417C60.1951 5.59319 61.9567 6.59157 63.6271 7.73311C63.6937 7.7785 63.7603 7.82389 63.8289 7.87066C65.263 8.85725 66.5174 10.0094 67.778 11.1836C67.8716 11.2703 67.9652 11.357 68.0617 11.4464C68.1913 11.5682 68.1913 11.5682 68.3235 11.6925C68.4013 11.7653 68.4792 11.8381 68.5593 11.9131C68.7269 12.0974 68.7269 12.0974 68.7269 12.3156C68.8034 12.3156 68.8799 12.3156 68.9587 12.3156C69.9265 13.2928 70.7362 14.4233 71.5086 15.5411C71.5548 15.6074 71.601 15.6738 71.6485 15.7422C71.9722 16.2172 71.9722 16.2172 71.9722 16.4617C72.0487 16.4617 72.1252 16.4617 72.204 16.4617C72.3995 16.738 72.5792 17.0129 72.7546 17.3004C72.8327 17.4276 72.8327 17.4276 72.9125 17.5574C74.1887 19.6609 74.866 21.8636 75.4494 24.2083C75.4711 24.2937 75.4928 24.3791 75.5152 24.467C75.839 25.7419 75.839 25.7419 75.6812 26.1722C75.2362 26.0449 74.8127 25.8873 74.3868 25.7132C72.9442 25.1236 71.5381 24.6347 70.0019 24.3174C69.8537 24.2853 69.7054 24.2533 69.5527 24.2202C63.6434 23.0181 57.6368 24.2721 52.2686 26.7177C52.1859 26.7553 52.1032 26.7928 52.018 26.8315C51.5522 27.0444 51.0896 27.2627 50.6294 27.4861C50.4222 27.5867 50.2144 27.686 50.0066 27.7854C48.3187 28.6096 46.688 29.55 45.1115 30.5501C45.0434 30.5933 44.9753 30.6364 44.9051 30.6808C44.8366 30.7242 44.7682 30.7676 44.6977 30.8122C44.5555 30.9022 44.4134 30.9921 44.2712 31.082C44.1944 31.1306 44.1177 31.1791 44.0386 31.2291C38.0051 35.0125 30.7251 37.586 23.4317 36.2511C20.3811 35.6661 15.7057 34.7097 13.6965 32.2456C13.0455 31.2993 12.9411 30.3629 12.9422 29.2549C12.9417 29.1447 12.9412 29.0345 12.9407 28.921C12.9401 28.6885 12.94 28.4561 12.9405 28.2236C12.9409 27.8746 12.9382 27.5256 12.9352 27.1765C12.9307 25.8241 13.0277 24.5496 13.3248 23.2263C13.3514 23.1041 13.378 22.9819 13.4055 22.8559C13.4797 22.5302 13.5597 22.2066 13.6435 21.8829C13.6732 21.7683 13.7029 21.6537 13.7335 21.5356C14.2089 19.7465 14.8246 18.0833 15.7588 16.4617C15.8482 16.2992 15.8482 16.2992 15.9394 16.1335C16.9759 14.2773 18.3711 12.5691 19.9033 11.0519C20.1635 10.7985 20.1635 10.7985 20.3578 10.5345C20.4336 10.444 20.4336 10.444 20.5109 10.3517C20.5873 10.3517 20.6638 10.3517 20.7427 10.3517C20.7427 10.2797 20.7427 10.2077 20.7427 10.1335C20.9007 9.98344 20.9007 9.98344 21.1266 9.80614C21.5114 9.4995 21.8819 9.18325 22.2494 8.85827C23.0517 8.16921 23.9211 7.56923 24.7993 6.96936C24.906 6.89608 25.0127 6.8228 25.1226 6.74731C26.931 5.53014 28.8411 4.63092 30.8915 3.83935C31.0826 3.76544 31.0826 3.76544 31.2775 3.69004C35.4815 2.09331 39.7793 1.38672 44.3002 1.3708ZM53.3407 6.17833C52.9667 6.81194 52.9672 7.63271 53.1496 8.3251C53.2764 8.65485 53.3942 8.90186 53.6594 9.1515C53.9951 9.19201 54.1669 9.20232 54.4418 9.0083C54.7627 8.60046 54.7217 8.181 54.7243 7.69219C54.7267 7.47827 54.7267 7.47827 54.7293 7.26003C54.6986 6.80189 54.6037 6.48757 54.3186 6.11696C54.1222 5.9673 54.1222 5.9673 53.8333 5.93966C53.5311 5.96252 53.5311 5.96252 53.3407 6.17833ZM58.1117 8.58252C57.6324 9.19681 57.575 9.6181 57.6001 10.3517C57.7373 10.5026 57.7373 10.5026 58.1217 10.5153C58.7992 10.5073 59.2256 10.1308 59.6864 9.69703C60.1238 9.2147 60.1969 8.75555 60.1663 8.13927C60.1609 8.07725 60.1556 8.01523 60.15 7.95132C59.3753 7.58667 58.6321 8.03118 58.1117 8.58252ZM40.7071 8.95374C40.6469 9.00641 40.5867 9.05909 40.5247 9.11335C40.3282 9.28865 40.3282 9.28865 40.0986 9.58793C40.1121 10.0077 40.2605 10.2631 40.5622 10.5699C40.6387 10.5699 40.7152 10.5699 40.7941 10.5699C40.8251 10.6374 40.8562 10.7049 40.8882 10.7745C41.0207 11.039 41.0207 11.039 41.3736 11.2245C41.9339 11.2112 42.2444 10.9125 42.6268 10.5631C42.685 10.5115 42.7432 10.46 42.8031 10.4069C42.9457 10.2803 43.087 10.1525 43.228 10.0244C43.074 9.59374 42.8866 9.3362 42.5399 9.02193C42.4599 8.94838 42.38 8.87482 42.2976 8.79903C41.5996 8.20959 41.3091 8.38929 40.7071 8.95374ZM47.9801 8.38775C47.8586 8.69728 47.8101 8.83193 47.8642 9.1515C48.303 9.76171 48.8903 10.3582 49.6028 10.679C50.0328 10.7246 50.0328 10.7246 50.4141 10.679C50.5638 10.5606 50.5638 10.5606 50.5662 10.2767C50.4934 9.55013 49.9477 9.10803 49.3818 8.65881C48.9275 8.35561 48.526 8.21645 47.9801 8.38775ZM28.8559 9.69703C28.4931 10.263 28.4476 10.7322 28.4285 11.3746C28.4246 11.4653 28.4206 11.556 28.4165 11.6495C28.4071 11.8715 28.3995 12.0935 28.3923 12.3156C28.3197 12.2539 28.2471 12.1921 28.1723 12.1285C28.0776 12.0485 27.9828 11.9684 27.8852 11.886C27.7911 11.8062 27.697 11.7265 27.6 11.6443C27.2982 11.4018 27.1812 11.3389 26.7842 11.3064C26.3784 11.3369 26.2245 11.3718 25.9583 11.661C25.9003 12.0199 25.928 12.246 26.0742 12.5816C26.4737 13.0634 26.9915 13.4342 27.4877 13.8256C28.139 14.3787 28.3567 14.8899 28.5082 15.6979C28.3754 15.5889 28.2426 15.4798 28.1098 15.3706C28.0252 15.3015 27.9407 15.2325 27.8536 15.1613C27.6714 15.0095 27.492 14.8546 27.3157 14.6968C26.6214 14.0782 26.6214 14.0782 25.7265 13.8431C25.3745 13.9219 25.3745 13.9219 25.147 14.1704C25.0307 14.5286 25.0307 14.5286 25.147 14.9342C25.6375 15.5832 26.2942 16.1229 26.9145 16.6594C27.077 16.801 27.2394 16.9427 27.4017 17.0844C27.4724 17.1456 27.5431 17.2069 27.616 17.2701C27.6809 17.3274 27.7459 17.3846 27.8128 17.4436C27.8777 17.4982 27.9426 17.5527 28.0095 17.6088C28.2572 17.8747 28.2064 18.1435 28.204 18.487C28.2053 18.6762 28.2053 18.6762 28.2067 18.8693C28.1915 18.9749 28.1762 19.0805 28.1605 19.1894C27.8128 19.4076 27.8128 19.4076 27.5928 19.3823C27.1007 19.2129 26.6498 18.9671 26.1901 18.7325C26.0856 18.6812 25.981 18.6299 25.8732 18.5771C25.2788 18.2737 24.858 18.041 24.5675 17.4436C24.426 16.9911 24.3172 16.5342 24.2125 16.073C24.1566 15.8294 24.0997 15.5861 24.0418 15.3429C24.0175 15.2356 23.9931 15.1284 23.968 15.0179C23.864 14.6907 23.7391 14.4456 23.5244 14.1704C23.1766 14.0977 23.1766 14.0977 22.8289 14.1704C22.6249 14.2979 22.6249 14.2979 22.4812 14.4977C22.4334 14.7506 22.4334 14.7506 22.4473 15.0309C22.4484 15.1332 22.4495 15.2356 22.4507 15.341C22.4536 15.4475 22.4565 15.5541 22.4595 15.6638C22.4611 15.7716 22.4626 15.8794 22.4642 15.9905C22.4683 16.2567 22.4741 16.5228 22.4812 16.789C21.9523 16.3595 21.8185 15.8818 21.6051 15.2717C21.4175 14.8925 21.2221 14.7308 20.8586 14.4977C20.6223 14.5702 20.6223 14.5702 20.3949 14.716C20.3139 14.9544 20.3139 14.9544 20.308 15.2206C20.3014 15.3097 20.2949 15.3989 20.2881 15.4908C20.2851 15.5591 20.2821 15.6275 20.279 15.6979C20.2215 15.6652 20.164 15.6324 20.1047 15.5986C19.675 15.3722 19.4124 15.2615 18.9099 15.2615C18.5416 15.3457 18.5416 15.3457 18.3087 15.5547C18.1432 15.915 18.1722 16.0914 18.3087 16.4617C18.8711 16.9715 19.5215 17.2969 20.2066 17.6414C20.314 17.6962 20.4215 17.751 20.5321 17.8074C20.7951 17.9414 21.0585 18.0747 21.3222 18.2074C21.2445 18.2363 21.1668 18.2652 21.0867 18.2949C20.9838 18.3334 20.8809 18.3719 20.7748 18.4115C20.6732 18.4494 20.5716 18.4873 20.4669 18.5264C19.592 18.8471 19.592 18.8471 18.8882 19.4076C18.8882 19.8064 18.9317 19.9919 19.2287 20.2804C20.0878 20.5445 21.0889 20.081 21.915 19.8184C22.141 19.7483 22.368 19.6862 22.5971 19.6258C22.737 19.587 22.8768 19.5481 23.0209 19.5081C23.7751 19.4339 24.4458 19.9207 25.0746 20.26C25.2134 20.3324 25.3524 20.4046 25.4916 20.4767C26.4926 21.0016 26.4926 21.0016 26.7697 21.2624C26.749 21.4803 26.749 21.4803 26.6538 21.6988C26.3752 21.8694 26.1079 22.0139 25.8135 22.1557C25.0329 22.5446 24.3401 22.9781 23.6475 23.4931C23.1028 23.7534 22.6694 23.6403 22.1127 23.4816C21.7614 23.37 21.414 23.2495 21.0671 23.1264C20.4516 22.9199 19.8903 22.8257 19.2359 22.899C18.9229 23.0463 18.8181 23.1402 18.6636 23.4309C18.6529 23.7741 18.7918 23.9326 19.0041 24.2083C19.6764 24.6265 20.3964 24.9374 21.2063 24.972C21.2063 25.044 21.2063 25.116 21.2063 25.1902C21.106 25.2175 21.0058 25.2448 20.9025 25.2729C20.488 25.4164 20.1721 25.597 19.8082 25.8312C19.6921 25.9052 19.576 25.9792 19.4564 26.0554C18.7415 26.4954 18.7415 26.4954 18.3087 27.1542C18.2603 27.4907 18.2603 27.4907 18.3087 27.8088C18.7437 28.0818 19.0802 28.1041 19.5836 28.027C19.9587 27.8881 20.2962 27.7038 20.6412 27.5088C20.7307 27.4604 20.8202 27.412 20.9124 27.3622C21.4094 27.0912 21.8913 26.8046 22.3653 26.4995C22.3462 26.603 22.3271 26.7066 22.3074 26.8132C22.2138 27.4506 22.1201 28.0951 22.416 28.6885C22.6369 28.9693 22.6369 28.9693 22.9811 29.0567C23.3234 29.0382 23.3234 29.0382 23.5301 28.724C23.7573 28.3524 23.8707 28.0445 23.9757 27.629C24.0124 27.4922 24.0491 27.3555 24.0869 27.2147C24.1428 27.0007 24.1979 26.7865 24.2515 26.572C24.6622 24.9463 25.4338 24.261 26.9096 23.4053C27.3067 23.1966 27.5157 23.1139 27.9794 23.1377C28.2764 23.2263 28.2764 23.2263 28.3923 23.3354C28.6059 25.0975 28.6059 25.0975 28.1664 25.7375C27.8687 25.983 27.5646 26.1871 27.2333 26.3904C27.0643 26.5265 26.8974 26.665 26.7334 26.8064C26.4866 27.0097 26.2392 27.2031 25.9801 27.3928C25.5586 27.7216 25.3964 27.8925 25.3281 28.4157C25.3429 28.7884 25.3429 28.7884 25.5672 29.009C25.9522 29.1616 26.1347 29.1165 26.5379 29.009C26.8446 28.8154 27.113 28.5884 27.3854 28.3543C27.4587 28.2933 27.532 28.2323 27.6075 28.1694C27.9481 27.8862 27.9481 27.8862 28.2764 27.5906C28.2816 28.2032 28.1831 28.4952 27.7263 28.9391C27.5471 29.1008 27.3658 29.2604 27.1826 29.4181C27.0011 29.5785 26.8202 29.7393 26.6397 29.9006C26.5591 29.9705 26.4785 30.0403 26.3955 30.1123C26.1058 30.4028 25.9733 30.6392 25.9221 31.0343C25.9385 31.3007 25.9385 31.3007 26.0887 31.498C26.427 31.6996 26.6054 31.6909 27.0015 31.6276C27.3346 31.4354 27.6288 31.2078 27.9287 30.9729C28.0829 30.8634 28.2374 30.7542 28.3923 30.6456C28.3905 30.7221 28.3887 30.7985 28.3868 30.8773C28.3796 31.2251 28.375 31.5729 28.3706 31.9208C28.3677 32.0411 28.3648 32.1614 28.3618 32.2854C28.3606 32.4018 28.3595 32.5182 28.3584 32.6381C28.3565 32.7449 28.3547 32.8518 28.3529 32.9619C28.3997 33.3207 28.512 33.5209 28.74 33.8097C29.0656 33.9907 29.0656 33.9907 29.4355 34.0279C29.8486 33.86 29.9951 33.7287 30.2468 33.3733C30.2666 33.0712 30.2738 32.7816 30.2685 32.48C30.2684 32.4003 30.2684 32.3206 30.2683 32.2385C30.2637 31.6996 30.2111 31.1792 30.1309 30.6456C30.1938 30.6982 30.2567 30.7508 30.3215 30.805C30.4044 30.8739 30.4873 30.9428 30.5728 31.0138C30.6548 31.0822 30.7368 31.1505 30.8213 31.221C31.1388 31.4735 31.3337 31.6205 31.7535 31.6617C32.0933 31.6517 32.0933 31.6517 32.3186 31.5048C32.5125 31.2005 32.4901 30.9961 32.449 30.6456C32.2271 30.3378 32.2271 30.3378 31.9202 30.0591C31.7619 29.9043 31.7619 29.9043 31.6005 29.7463C31.498 29.647 31.3955 29.5477 31.2899 29.4454C31.1365 29.2829 30.9842 29.1193 30.8336 28.9544C30.6563 28.7609 30.4872 28.5797 30.2839 28.4102C30.028 28.1343 30.1099 27.8303 30.1309 27.4815C30.1954 27.5382 30.26 27.5949 30.3265 27.6532C31.3247 28.572 31.3247 28.572 32.6083 28.9476C33.0329 28.9407 33.0329 28.9407 33.2603 28.6817C33.3069 28.3468 33.3315 28.1314 33.2603 27.8088C33.0345 27.5453 32.8525 27.369 32.5794 27.161C32.5112 27.1057 32.4431 27.0505 32.3729 26.9935C32.2342 26.8811 32.0947 26.7696 31.9543 26.659C31.6651 26.4293 31.3876 26.188 31.1088 25.9472C30.7454 25.6351 30.7454 25.6351 30.3364 25.3825C30.0106 25.0778 30.0478 24.7132 30.0367 24.3037C30.0323 24.2229 30.0279 24.142 30.0234 24.0587C30.014 23.8541 30.0138 23.6493 30.015 23.4445C30.1309 23.3354 30.1309 23.3354 30.4446 23.3095C30.8773 23.3389 31.1109 23.4413 31.4864 23.6419C31.6076 23.7054 31.7288 23.7689 31.8536 23.8343C31.9784 23.9014 32.1031 23.9686 32.2316 24.0378C32.4804 24.1699 32.7294 24.3016 32.9787 24.4329C33.0884 24.4917 33.1981 24.5506 33.3111 24.6112C33.5701 24.7356 33.7878 24.812 34.0716 24.8629C34.09 25.0065 34.09 25.0065 34.1087 25.153C34.1549 25.5106 34.2024 25.868 34.2506 26.2254C34.2712 26.3797 34.2913 26.5339 34.3109 26.6883C34.3394 26.9111 34.3695 27.1336 34.3999 27.3562C34.4175 27.4899 34.4351 27.6236 34.4532 27.7613C34.5621 28.2589 34.731 28.6477 35.1148 29.009C35.4663 28.9993 35.4663 28.9993 35.8102 28.8999C36.0817 28.5165 36.0732 28.3509 36.071 27.8975C36.0716 27.7789 36.0722 27.6603 36.0728 27.5382C36.0373 27.0953 35.9353 26.7091 35.8102 26.2813C35.9064 26.3316 35.9064 26.3316 36.0046 26.3828C36.3018 26.5379 36.5993 26.6926 36.8968 26.8473C36.9976 26.9 37.0985 26.9526 37.2024 27.0069C37.5101 27.1668 37.8188 27.3247 38.1283 27.4815C38.2316 27.5342 38.335 27.5869 38.4415 27.6412C38.5416 27.6906 38.6417 27.74 38.7449 27.7909C38.834 27.8353 38.923 27.8796 39.0148 27.9253C39.4754 28.0972 39.9607 28.1105 40.4463 28.027C40.7201 27.8114 40.7201 27.8114 40.7506 27.4065C40.7418 27.1081 40.713 26.9756 40.509 26.7438C39.9106 26.263 39.2948 25.9088 38.5919 25.5789C38.491 25.5303 38.3902 25.4818 38.2863 25.4317C38.041 25.3137 37.7952 25.1969 37.5487 25.0811C38.0215 24.7844 38.5313 24.6335 39.0632 24.4504C39.4103 24.3385 39.4103 24.3385 39.635 24.0992C39.6758 23.6573 39.6262 23.3929 39.4032 23.0081C38.4206 23.0836 37.5064 23.3119 36.557 23.5541C36.4377 23.5835 36.3184 23.6129 36.1955 23.6431C36.0343 23.6841 36.0343 23.6841 35.8698 23.7259C34.5664 23.9315 32.6535 22.14 31.6376 21.4806C31.8283 21.0892 31.9807 20.948 32.3838 20.7373C32.9413 20.4379 33.4812 20.1194 34.02 19.7911C34.6825 19.4046 35.0482 19.3759 35.8102 19.5167C36.1764 19.6101 36.5323 19.7239 36.8895 19.844C37.0701 19.9032 37.2508 19.9623 37.4315 20.0213C37.5098 20.0475 37.5882 20.0736 37.6689 20.1006C38.1042 20.2359 38.4947 20.3 38.9541 20.3077C39.0548 20.3105 39.1555 20.3133 39.2592 20.3162C39.345 20.3044 39.4307 20.2926 39.5191 20.2804C39.7897 19.8983 39.8289 19.7479 39.7509 19.2985C39.2391 18.9164 38.6964 18.7115 38.0848 18.5074C37.9995 18.4782 37.9142 18.4489 37.8263 18.4188C37.6182 18.3475 37.4096 18.2774 37.201 18.2074C37.6754 17.6538 38.3512 17.4878 39.0353 17.2446C39.664 17.0101 40.2399 16.7442 40.6782 16.2435C40.7463 15.8883 40.7463 15.8883 40.6782 15.5888C40.6017 15.5888 40.5252 15.5888 40.4463 15.5888C40.4463 15.5168 40.4463 15.4448 40.4463 15.3706C39.6065 15.2974 39.0835 15.5254 38.3601 15.9161C38.3711 15.8491 38.3822 15.782 38.3936 15.7128C38.4064 15.6247 38.4193 15.5365 38.4325 15.4456C38.446 15.3583 38.4594 15.2709 38.4733 15.1809C38.5009 14.9028 38.5009 14.9028 38.2442 14.6069C37.9118 14.6103 37.9118 14.6103 37.5487 14.716C37.0867 15.2771 36.8491 15.8977 36.5821 16.555C36.3715 16.9306 36.2133 17.0488 35.8102 17.2254C35.8268 17.0379 35.8268 17.0379 35.8437 16.8465C35.8567 16.6796 35.8697 16.5127 35.8826 16.3457C35.8901 16.2637 35.8976 16.1816 35.9053 16.0971C35.9512 15.4723 35.9121 14.9349 35.5494 14.3886C35.3361 14.2553 35.3361 14.2553 35.0061 14.2591C34.6161 14.3655 34.6161 14.3655 34.3904 14.7432C33.9589 15.6875 33.9119 16.7565 33.9557 17.771C33.8912 17.7988 33.8266 17.8267 33.7601 17.8553C33.4538 18.0083 33.1904 18.1893 32.9126 18.3847C32.4348 18.7137 31.9568 19.0414 31.471 19.3598C31.3588 19.4342 31.2466 19.5086 31.131 19.5853C30.8263 19.7349 30.8263 19.7349 30.5687 19.7174C30.3627 19.6258 30.3627 19.6258 30.1309 19.4076C29.9445 18.9144 29.9077 18.5034 30.015 17.9892C30.6422 17.0401 31.7778 16.3173 32.7473 15.7047C33.0796 15.4388 33.2207 15.2067 33.3762 14.8251C33.3085 14.4567 33.2515 14.2533 32.9416 14.0136C32.5591 13.9236 32.365 13.9445 31.9853 14.0613C31.3702 14.477 30.8491 15.0128 30.3238 15.5232C30.1309 15.6979 30.1309 15.6979 29.8991 15.807C29.8713 15.408 29.8713 15.1951 30.015 14.8251C30.3859 14.4321 30.7989 14.1025 31.2278 13.7672C31.4805 13.5651 31.7151 13.3481 31.9491 13.1271C32.0574 13.0256 32.0574 13.0256 32.1678 12.9221C32.4286 12.6538 32.449 12.533 32.4779 12.1588C32.4783 11.7863 32.4783 11.7863 32.3258 11.5519C32.048 11.4169 31.8331 11.4059 31.5267 11.4594C30.901 11.7038 30.3844 12.2304 30.015 12.752C30.0133 12.6822 30.0116 12.6123 30.0099 12.5403C30.0012 12.2221 29.99 11.9041 29.9788 11.586C29.9761 11.476 29.9735 11.3661 29.9708 11.2529C29.9469 10.6318 29.9264 10.1592 29.4355 9.69703C29.2423 9.6926 29.049 9.69237 28.8559 9.69703ZM50.645 11.2561C49.9045 12.1748 49.561 13.2367 49.7187 14.3886C49.9883 15.6259 50.5468 16.5809 51.665 17.3034C52.786 17.9179 53.9772 18.0582 55.2526 17.8208C55.7878 17.667 56.225 17.4349 56.6729 17.1163C56.845 17.0015 56.845 17.0015 57.0206 16.8845C57.7463 16.302 58.2247 15.3821 58.319 14.4953C58.3307 14.2615 58.3337 14.0294 58.3318 13.7954C58.3313 13.7134 58.3308 13.6314 58.3303 13.5469C58.3105 12.6345 57.9812 11.9989 57.4842 11.2245C57.4077 11.2245 57.3312 11.2245 57.2524 11.2245C57.1951 11.0625 57.1951 11.0625 57.1365 10.8972C56.0534 10.0071 55.0473 9.73654 53.6268 9.76864C52.407 9.87478 51.4474 10.3949 50.645 11.2561ZM45.3143 13.1885C45.227 13.4422 45.227 13.4422 45.3143 13.734C46.1237 14.4453 47.2162 14.5425 48.2739 14.5272C48.6304 14.4905 48.8635 14.3851 49.1391 14.1704C49.1173 13.8 49.0554 13.6543 48.7697 13.393C47.9756 12.9445 46.0817 12.4661 45.3143 13.1885ZM59.1069 13.0794C59.0296 13.3973 59.0296 13.3973 59.1069 13.734C59.5857 14.2429 60.2587 14.4564 60.9642 14.5184C61.2291 14.5335 61.4929 14.5412 61.7582 14.5455C61.8451 14.5479 61.932 14.5503 62.0216 14.5528C62.4154 14.5513 62.6393 14.5503 62.9353 14.2936C63.0746 14.0615 63.0746 14.0615 63.0042 13.7886C62.5936 13.1939 61.8928 13.0198 61.1932 12.8611C60.7456 12.827 60.7456 12.827 60.2949 12.8339C60.1449 12.8333 59.9949 12.8327 59.8403 12.8322C59.4388 12.8327 59.4388 12.8327 59.1069 13.0794ZM48.3278 17.4982C47.9666 17.8579 47.7649 18.1598 47.7121 18.6575C47.724 18.761 47.736 18.8645 47.7483 18.9711C48.1307 19.2111 48.3139 19.2253 48.7616 19.1608C49.4602 18.9458 50.1561 18.3577 50.53 17.771C50.623 17.3684 50.623 17.3684 50.6459 17.0072C49.792 16.5125 49.0402 16.8403 48.3278 17.4982ZM57.6001 17.1163C57.4268 17.4427 57.4347 17.6228 57.4842 17.9892C57.9046 18.7664 58.5792 19.6092 59.4546 19.9531C59.8121 19.9986 59.8121 19.9986 60.15 19.9531C60.42 19.6411 60.42 19.6411 60.3673 19.2644C60.2554 18.8204 60.0943 18.5686 59.8023 18.2074C59.7354 18.1151 59.6684 18.0229 59.5995 17.9278C59.2111 17.5317 58.7533 17.1648 58.1711 17.0822C57.9266 17.0786 57.9266 17.0786 57.6001 17.1163ZM53.7753 18.2074C53.1308 18.912 53.1718 19.4839 53.1668 20.3827C53.1644 20.4907 53.162 20.5986 53.1596 20.7098C53.1447 21.4811 53.1447 21.4811 53.5435 22.1352C53.8333 22.2262 53.8333 22.2262 54.123 22.1352C54.6564 21.4897 54.6111 20.7956 54.6156 20.0145C54.618 19.9117 54.6204 19.809 54.6229 19.7031C54.6303 18.9544 54.6303 18.9544 54.2389 18.3165C53.9972 18.2207 53.9972 18.2207 53.7753 18.2074ZM45.0463 20.0213C44.9826 20.0797 44.9188 20.138 44.8532 20.1982C44.5681 20.4722 44.3963 20.646 44.3459 21.0331C44.3595 21.1088 44.3731 21.1844 44.3871 21.2624C44.4636 21.2624 44.5401 21.2624 44.6189 21.2624C44.6189 21.3344 44.6189 21.4064 44.6189 21.4806C44.6954 21.4806 44.7719 21.4806 44.8507 21.4806C44.8507 21.5526 44.8507 21.6246 44.8507 21.6988C45.0052 21.8807 45.0052 21.8807 45.1984 22.0261C45.2749 22.0261 45.3514 22.0261 45.4302 22.0261C45.4302 22.0981 45.4302 22.1702 45.4302 22.2444C45.7461 22.4886 45.7461 22.4886 46.0505 22.4536C46.4546 22.3218 46.6759 22.1232 46.9804 21.842C47.0841 21.7493 47.1878 21.6566 47.2946 21.5612C47.5485 21.2784 47.5485 21.2784 47.5228 20.9351C47.3795 20.5513 47.1995 20.3275 46.908 20.0281C46.819 19.934 46.7299 19.8399 46.6382 19.743C45.9506 19.1887 45.6059 19.467 45.0463 20.0213ZM21.0401 21.2402C20.7745 21.5919 20.7856 21.8247 20.8586 22.2444C21.3203 22.6022 21.6679 22.6005 22.2494 22.5512C22.4014 22.5386 22.5533 22.5259 22.7099 22.5129C23.3713 22.4451 24.028 22.3515 24.6834 22.2444C24.6834 22.1003 24.6834 21.9563 24.6834 21.8079C24.4442 21.6138 24.4442 21.6138 24.1329 21.4601C24.0307 21.4046 23.9285 21.349 23.8232 21.2918C23.2758 21.0381 22.8021 21.0208 22.1915 21.0101C22.0397 21.006 21.8879 21.0019 21.7315 20.9977C21.3194 21.0123 21.3194 21.0123 21.0401 21.2402ZM34.6511 21.3715C34.6221 21.767 34.6221 21.767 34.6511 22.1352C34.999 22.3235 35.2509 22.3814 35.6508 22.3824C35.7518 22.3827 35.8528 22.383 35.9569 22.3833C36.0615 22.3824 36.166 22.3816 36.2738 22.3807C36.3784 22.3816 36.483 22.3824 36.5907 22.3833C36.7422 22.3829 36.7422 22.3829 36.8968 22.3824C36.9885 22.3822 37.0803 22.3819 37.1748 22.3817C37.4667 22.3497 37.6513 22.2875 37.8965 22.1352C38.0219 21.8177 38.0219 21.8177 38.0124 21.4806C37.8498 21.247 37.734 21.1732 37.4519 21.092C37.0024 21.0063 36.5499 21.0195 36.0927 21.0169C35.9927 21.0146 35.8926 21.0124 35.7896 21.0101C35.6934 21.0095 35.5973 21.009 35.4982 21.0084C35.4107 21.0074 35.3233 21.0063 35.2331 21.0053C34.9313 21.0554 34.83 21.1397 34.6511 21.3715ZM20.9908 31.4758C20.9185 31.5529 20.8461 31.63 20.7716 31.7094C20.6981 31.7853 20.6246 31.8613 20.5489 31.9395C20.3712 32.1589 20.3712 32.1589 20.4094 32.3951C20.5226 32.6344 20.6504 32.8115 20.8296 33.0119C20.8864 33.0775 20.9431 33.1432 21.0016 33.2109C21.2557 33.4125 21.4603 33.4433 21.7858 33.4824C21.9255 33.3318 22.0627 33.1791 22.1987 33.0255C22.3137 32.8983 22.3137 32.8983 22.431 32.7685C22.6233 32.5114 22.6233 32.5114 22.5921 32.2174C22.459 31.9022 22.3243 31.7884 22.0321 31.5935C21.9511 31.5376 21.8701 31.4818 21.7867 31.4243C21.4515 31.2456 21.2855 31.2357 20.9908 31.4758Z" fill="url(#paint12_linear_435_110)"/>
<path fill-rule="evenodd" clip-rule="evenodd" d="M134.257 19.2634C134.619 19.0869 135.272 18.8633 135.707 18.7457C136.229 18.6163 136.998 18.5457 137.955 18.5457C138.811 18.5339 139.739 18.6045 140.203 18.7104C140.638 18.8045 141.261 19.0163 141.581 19.1693C141.9 19.334 142.393 19.6635 142.697 19.9106C142.987 20.1576 143.364 20.5695 143.524 20.8284C143.698 21.0872 143.872 21.5814 144.046 22.5462L140.71 22.4756L140.638 22.0638C140.594 21.8403 140.449 21.5108 140.304 21.3225C140.174 21.146 139.84 20.9225 139.594 20.8166C139.333 20.7107 138.753 20.593 138.317 20.5577C137.882 20.5342 137.288 20.5577 137.012 20.6283C136.737 20.6989 136.331 20.8636 136.113 21.0048C135.866 21.146 135.649 21.4284 135.562 21.7108C135.446 22.0756 135.46 22.2756 135.634 22.5933C135.779 22.8757 136.084 23.111 136.621 23.3581C137.027 23.5464 137.998 23.8758 138.753 24.0759C139.507 24.2759 140.551 24.6289 141.073 24.8407C141.595 25.0525 142.291 25.4525 142.639 25.7114C142.973 25.9702 143.393 26.4056 143.567 26.6762C143.843 27.088 143.901 27.3704 143.901 28.2411C143.901 29.0883 143.843 29.3942 143.596 29.7707C143.422 30.0296 143.016 30.4414 142.683 30.6767C142.364 30.9238 141.813 31.218 141.479 31.3474C141.131 31.4651 140.507 31.6181 140.101 31.7004C139.681 31.771 138.825 31.8298 138.216 31.8298C137.592 31.8298 136.679 31.7475 136.186 31.6534C135.678 31.5592 134.895 31.3239 134.445 31.1357C133.981 30.9474 133.314 30.5355 132.966 30.2296C132.603 29.9119 132.197 29.4413 132.067 29.1824C131.922 28.9236 131.777 28.4647 131.646 27.594H134.982V27.8881C134.982 28.0528 135.069 28.3588 135.17 28.5588C135.286 28.7706 135.562 29.0883 135.794 29.253C136.026 29.4178 136.563 29.6178 136.983 29.6884C137.389 29.7707 137.955 29.8296 138.216 29.8296C138.462 29.8296 138.941 29.7707 139.26 29.7001C139.579 29.6178 140.014 29.406 140.246 29.2295C140.565 28.9471 140.638 28.7824 140.638 28.2646C140.638 27.9116 140.551 27.5351 140.42 27.3822C140.304 27.241 139.927 26.9939 139.594 26.8409C139.246 26.688 138.288 26.3585 137.447 26.1232C136.606 25.8761 135.475 25.4878 134.924 25.2525C134.329 25.0054 133.633 24.5818 133.212 24.2053C132.821 23.864 132.458 23.4051 132.371 23.1463C132.299 22.911 132.226 22.3933 132.226 22.005C132.226 21.5814 132.342 21.1107 132.502 20.8284C132.647 20.5695 132.951 20.1812 133.183 19.9576C133.416 19.7458 133.894 19.4282 134.257 19.2634ZM98 31.5004C98 31.4533 99.3197 28.547 100.93 25.0289L103.859 18.6516H106.992L108.384 21.7343C109.011 23.1254 109.994 25.2752 110.776 26.9847C110.953 27.3719 111.12 27.7365 111.27 28.0646C112.097 29.8413 112.807 31.3945 112.851 31.5004C112.938 31.7004 112.793 31.7122 109.414 31.6534L108.297 28.8883H102.496L101.408 31.5945H99.7113C98.7686 31.5945 98 31.5592 98 31.5004ZM114.461 31.6416L114.417 25.1466L114.388 18.6398H117.724V29.5825H124.685V31.7004L114.461 31.6416ZM149.937 20.7565C150.411 19.7269 150.72 19.0566 150.761 18.9693L150.92 18.6516H153.966L154.27 19.3223C154.444 19.6988 155.025 20.9813 155.561 22.1815C155.74 22.5719 155.987 23.113 156.271 23.7343C156.858 25.0228 157.603 26.6562 158.23 28.0058C159.158 30.0061 159.926 31.6651 159.912 31.6769C159.912 31.7004 159.114 31.7004 156.373 31.6534L155.88 30.3591C155.605 29.6531 155.315 29.0295 155.213 28.9824C155.126 28.9236 153.821 28.9 149.543 28.9471L148.382 31.7122H146.685C145.743 31.7122 144.974 31.6769 144.974 31.6181C144.974 31.5753 146.029 29.267 147.375 26.3195C147.51 26.0246 147.648 25.7233 147.788 25.4172C148.619 23.6138 149.388 21.9455 149.937 20.7565ZM161.406 26.9233C161.464 24.2759 161.507 21.3343 161.507 20.3812V18.6398H164.48C166.119 18.6398 167.961 18.6986 168.585 18.7692C169.194 18.8398 169.991 18.9928 170.354 19.0987C170.716 19.2163 171.253 19.4635 171.572 19.6517C171.877 19.84 172.297 20.24 172.5 20.5224C172.776 20.9107 172.892 21.2754 172.935 21.8755C172.979 22.3697 172.935 22.8992 172.819 23.1698C172.718 23.4404 172.5 23.8052 172.326 23.9935C172.167 24.1818 171.775 24.4877 170.934 24.9936L171.485 25.2172C171.775 25.3349 172.239 25.6407 172.5 25.8996C172.761 26.1467 173.08 26.6409 173.211 26.9939C173.399 27.5469 173.414 27.794 173.283 28.5235C173.167 29.1236 172.993 29.5825 172.718 29.9355C172.486 30.2296 171.978 30.6415 171.587 30.865C171.181 31.0768 170.542 31.3356 170.136 31.4415C169.556 31.5945 168.57 31.6416 161.29 31.7239L161.406 26.9233ZM177.344 25.4407C178.925 21.9932 180.274 19.0634 180.361 18.9104C180.491 18.6633 180.593 18.6516 181.956 18.6516C183.189 18.6516 183.421 18.6869 183.537 18.8516C183.609 18.9693 184.915 21.7696 186.423 25.0642C186.965 26.2376 187.48 27.3543 187.929 28.3287C188.741 30.0901 189.339 31.3864 189.497 31.7122H185.944L184.915 29.0647H179.026L177.968 31.7122L174.487 31.7004L177.344 25.4407ZM190.919 25.2642C190.904 21.7108 190.948 18.7692 191.02 18.7339C191.093 18.6869 191.847 18.6516 194.283 18.6516V24.0641H200.809V18.7692H204V31.7122H200.809V26.0644H194.283V31.7122H190.948L190.919 25.2642ZM163.915 37.5601C163.726 37.4659 163.668 37.3483 163.741 37.2071C163.813 37.0659 163.958 37.007 164.161 37.0305C164.35 37.0541 164.495 37.16 164.524 37.3012C164.553 37.4306 164.495 37.5718 164.379 37.6189C164.277 37.6659 164.06 37.6424 163.915 37.5601ZM125.396 40.4193V38.772V37.1247H125.831C126.266 37.1247 126.266 37.1365 126.266 38.419H127.861V37.7718C127.861 37.1364 127.861 37.1247 128.731 37.1247V40.4193H127.861V39.0073H126.266V40.4193H125.396ZM129.877 38.9132C129.543 38.0895 129.239 37.3482 129.195 37.2659C129.152 37.1718 129.268 37.1247 129.572 37.1247C130.022 37.1247 130.036 37.1364 130.413 38.1483C130.617 38.7249 130.82 39.2661 130.863 39.3603C130.907 39.4544 131.124 39.0661 131.356 38.4778C131.588 37.8895 131.777 37.3482 131.777 37.2659C131.777 37.1835 131.98 37.1247 132.792 37.1247L132.096 38.7367C131.4 40.3369 131.385 40.3604 130.471 40.4193L129.877 38.9132ZM133.915 37.5548C133.97 37.4387 134.008 37.3579 134.025 37.3247C134.083 37.207 134.271 37.1247 134.503 37.1247C134.851 37.1247 134.938 37.2071 135.272 37.9719C135.489 38.4422 135.837 39.1828 136.416 40.4168L136.418 40.4193H135.983C135.634 40.4193 135.518 40.3487 135.402 40.0663C135.272 39.7368 135.214 39.7133 134.532 39.7133C133.851 39.7133 133.793 39.7368 133.662 40.0663C133.546 40.3487 133.43 40.4193 133.082 40.4193C132.835 40.4193 132.632 40.3957 132.618 40.3604C132.603 40.3369 132.893 39.6897 133.256 38.9249C133.527 38.3757 133.775 37.8507 133.915 37.5548ZM136.751 37.913C136.853 37.713 137.099 37.4424 137.302 37.3247C137.505 37.207 137.911 37.1247 138.259 37.1247C138.607 37.1247 139.043 37.2188 139.246 37.3247C139.449 37.4424 139.681 37.6777 139.753 37.8542C139.884 38.1719 139.869 38.1836 139.463 38.1836C139.217 38.1836 139.028 38.1248 139.028 38.066C139.028 38.0072 138.927 37.866 138.811 37.7718C138.695 37.6777 138.433 37.5953 138.23 37.5953C138.013 37.5953 137.781 37.7012 137.65 37.8542C137.52 38.0189 137.433 38.3955 137.433 38.7955C137.433 39.325 137.505 39.5368 137.723 39.7133C137.882 39.8427 138.114 39.9486 138.23 39.9486C138.361 39.9486 138.622 39.8192 138.825 39.6544C139.028 39.4897 139.347 39.3603 139.536 39.3603C139.84 39.3603 139.884 39.3956 139.782 39.6192C139.724 39.7486 139.507 39.9957 139.275 40.1486C138.999 40.3369 138.695 40.4193 138.259 40.4193C137.911 40.4193 137.505 40.3369 137.302 40.2192C137.099 40.1016 136.853 39.8309 136.751 39.6192C136.65 39.4191 136.563 39.0308 136.563 38.772C136.563 38.5131 136.65 38.1248 136.751 37.913ZM141.769 38.2072C141.856 37.9366 142.103 37.5836 142.32 37.4188C142.61 37.1835 142.857 37.1247 143.408 37.1247C143.93 37.1247 144.191 37.1953 144.452 37.3835C144.641 37.5365 144.844 37.7719 144.887 37.913C144.96 38.1484 144.916 38.1836 144.539 38.1836C144.249 38.1836 144.104 38.1248 144.104 38.0072C144.104 37.913 143.959 37.7718 143.77 37.7012C143.596 37.6306 143.321 37.5953 143.161 37.6306C143.002 37.6659 142.784 37.8307 142.683 37.9954C142.596 38.1601 142.509 38.5131 142.509 38.772C142.509 39.0308 142.596 39.3838 142.683 39.5486C142.784 39.7133 143.002 39.878 143.161 39.9133C143.321 39.9486 143.596 39.9133 143.77 39.8427C143.959 39.7721 144.104 39.6309 144.104 39.5368C144.104 39.4191 144.249 39.3603 144.539 39.3603C144.858 39.3603 144.96 39.4074 144.902 39.5368C144.858 39.6309 144.829 39.7721 144.829 39.8309C144.829 39.8898 144.612 40.0545 144.351 40.1839C144.104 40.3133 143.669 40.4193 143.408 40.4193C143.161 40.4193 142.77 40.3487 142.538 40.2545C142.32 40.1722 142.074 39.9721 141.987 39.8192C141.885 39.6662 141.769 39.3485 141.711 39.125C141.653 38.9014 141.682 38.4896 141.769 38.2072ZM173.182 37.8307C173.298 37.6424 173.544 37.3953 173.718 37.3012C173.907 37.2071 174.328 37.1247 174.661 37.1247C175.111 37.1247 175.401 37.207 175.72 37.4188C175.952 37.5836 176.155 37.8189 176.155 37.9483C176.155 38.1052 176.058 38.1836 175.865 38.1836C175.705 38.1836 175.444 38.0542 175.285 37.8895C175.111 37.713 174.85 37.5953 174.632 37.5953C174.415 37.5953 174.183 37.7012 174.052 37.8542C173.922 38.0189 173.834 38.3955 173.834 38.7955C173.834 39.325 173.907 39.5368 174.125 39.7133C174.284 39.8427 174.516 39.9486 174.632 39.9486C174.748 39.9486 174.995 39.8192 175.169 39.6544C175.357 39.5015 175.647 39.372 175.821 39.3603C176.053 39.3603 176.155 39.4309 176.155 39.5956C176.155 39.7251 175.952 39.9604 175.72 40.1251C175.401 40.3369 175.111 40.4193 174.661 40.4193C174.328 40.4193 173.907 40.3369 173.718 40.2427C173.544 40.1486 173.298 39.9015 173.182 39.7133C173.066 39.525 172.964 39.0897 172.964 38.772C172.964 38.4425 173.066 38.0189 173.182 37.8307ZM151.863 37.9483C151.993 37.9483 152.08 37.8424 152.08 37.6542C152.08 37.4188 152.153 37.36 152.443 37.36C152.733 37.36 152.806 37.4188 152.806 37.6542C152.806 37.866 152.878 37.9483 153.096 37.9483C153.289 37.9483 153.386 38.0268 153.386 38.1836C153.386 38.3405 153.289 38.419 153.096 38.419C152.835 38.419 152.806 38.5014 152.806 39.125C152.806 39.7368 152.849 39.8427 153.096 39.8898C153.27 39.9251 153.386 40.0427 153.386 40.1839C153.386 40.3722 153.284 40.4193 152.907 40.4193C152.661 40.4193 152.356 40.3604 152.255 40.2781C152.138 40.1839 152.08 39.8074 152.08 39.2662C152.08 38.5955 152.037 38.419 151.863 38.419C151.747 38.419 151.645 38.3131 151.645 38.1836C151.645 38.0542 151.747 37.9483 151.863 37.9483ZM161.725 37.9483C161.855 37.9483 161.942 37.8424 161.942 37.6542C161.942 37.4188 162.015 37.36 162.305 37.36C162.595 37.36 162.667 37.4188 162.667 37.6542C162.667 37.866 162.74 37.9483 162.957 37.9483C163.151 37.9483 163.248 38.0268 163.248 38.1836C163.248 38.3405 163.151 38.419 162.957 38.419C162.696 38.419 162.667 38.5014 162.667 39.125C162.667 39.7368 162.711 39.8427 162.957 39.8898C163.132 39.9251 163.248 40.0427 163.248 40.1839C163.248 40.3722 163.146 40.4193 162.812 40.4193C162.566 40.4193 162.276 40.3369 162.16 40.2427C162.015 40.1251 161.942 39.8192 161.942 39.2426C161.942 38.5837 161.899 38.419 161.725 38.419C161.609 38.419 161.507 38.3131 161.507 38.1836C161.507 38.0542 161.609 37.9483 161.725 37.9483ZM145.583 38.5013C145.67 38.3601 145.844 38.1837 145.975 38.1013C146.105 38.0189 146.453 37.9483 146.743 37.9483C147.164 37.9483 147.396 38.0307 147.73 38.3013C148.078 38.5837 148.165 38.7484 148.165 39.1838C148.165 39.6074 148.078 39.7839 147.744 40.0663C147.425 40.3251 147.179 40.4193 146.802 40.4193C146.41 40.4193 146.163 40.3251 145.844 40.0663C145.511 39.7956 145.409 39.6074 145.409 39.2426C145.409 38.9838 145.482 38.6543 145.583 38.5013ZM148.745 40.4193V39.1838V37.9483H149.107C149.31 37.9483 149.47 38.0072 149.47 38.066C149.47 38.1444 149.567 38.1444 149.76 38.066C149.92 38.0072 150.21 37.9483 150.413 37.9483C150.616 37.9483 150.877 38.0307 150.993 38.1248C151.152 38.2542 151.21 38.5719 151.21 39.3603C151.21 40.4075 151.21 40.4193 150.848 40.4193C150.5 40.4193 150.485 40.3957 150.485 39.5603C150.485 39.1014 150.427 38.6425 150.369 38.5484C150.297 38.4425 150.137 38.419 149.862 38.466C149.47 38.5366 149.47 38.5484 149.47 39.478C149.47 40.4075 149.47 40.4193 148.745 40.4193ZM153.821 40.4193V39.1838V37.9483H154.183C154.386 37.9483 154.546 38.0189 154.546 38.0895C154.546 38.2072 154.575 38.2072 154.72 38.0895C154.821 38.0189 155.039 37.9483 155.228 37.9483C155.416 37.9483 155.561 38.0072 155.561 38.066C155.561 38.1248 155.532 38.266 155.489 38.3602C155.445 38.4543 155.3 38.5366 155.155 38.5366C155.01 38.5366 154.821 38.6072 154.72 38.6778C154.618 38.772 154.546 39.1603 154.546 39.6192C154.546 40.3957 154.531 40.4193 153.821 40.4193ZM155.634 38.5955L156.025 38.266C156.33 38.0189 156.562 37.9483 157.011 37.9483C157.403 37.9483 157.693 38.0307 157.882 38.1836C158.114 38.3719 158.172 38.5719 158.172 39.2426C158.172 39.7015 158.201 40.1486 158.244 40.2427C158.302 40.3722 158.201 40.4193 157.882 40.4193C157.635 40.4193 157.446 40.3604 157.446 40.2663C157.446 40.1486 157.417 40.1486 157.272 40.2663C157.171 40.3486 156.895 40.4193 156.649 40.4193C156.417 40.4193 156.098 40.3251 155.953 40.2074C155.808 40.1016 155.692 39.878 155.692 39.7133C155.692 39.5485 155.808 39.325 155.953 39.2073C156.098 39.1014 156.489 38.9602 156.837 38.9132C157.272 38.8543 157.446 38.7837 157.417 38.6543C157.388 38.5602 157.214 38.4661 157.011 38.4425C156.808 38.419 156.62 38.466 156.576 38.5366C156.533 38.6072 156.301 38.6543 155.634 38.5955ZM158.752 39.1485C158.766 38.6543 158.839 38.466 159.114 38.2425C159.361 38.0307 159.622 37.9483 160.013 37.9483C160.333 37.9366 160.695 38.0307 160.884 38.1483C161.058 38.266 161.232 38.4778 161.275 38.619C161.348 38.8426 161.304 38.8896 161 38.8896C160.782 38.8896 160.579 38.7955 160.492 38.6543C160.405 38.5249 160.216 38.419 160.057 38.419C159.897 38.419 159.694 38.5249 159.622 38.6543C159.535 38.7837 159.477 39.0191 159.477 39.1838C159.477 39.3485 159.535 39.5838 159.622 39.7133C159.694 39.8427 159.897 39.9486 160.057 39.9486C160.216 39.9486 160.376 39.8662 160.42 39.7721C160.463 39.6662 160.666 39.5956 160.927 39.5956C161.304 39.5956 161.348 39.6309 161.246 39.8545C161.188 39.9839 161.014 40.1721 160.855 40.2663C160.695 40.3486 160.318 40.4193 160.013 40.4193C159.607 40.4193 159.39 40.3369 159.114 40.0898C158.81 39.8309 158.737 39.6545 158.752 39.1485ZM163.683 40.4193V39.1838V37.9483H164.553V40.4193H163.683ZM165.133 40.4193V39.1838C165.133 37.9836 165.147 37.9483 165.452 37.9483C165.64 37.9483 165.858 38.0072 165.945 38.0895C166.09 38.2072 166.134 38.2072 166.206 38.0895C166.25 38.0189 166.525 37.9483 166.801 37.9483C167.163 37.9483 167.366 38.0189 167.526 38.2072C167.671 38.3954 167.743 38.772 167.743 39.4426C167.743 40.4075 167.743 40.4193 167.381 40.4193C167.033 40.4193 167.018 40.3957 166.975 39.525C166.96 38.8779 166.888 38.5837 166.728 38.5013C166.612 38.4425 166.395 38.419 166.25 38.4543C166.047 38.5249 166.003 38.6896 166.003 40.4193H165.133ZM168.323 39.1838C168.338 38.6543 168.41 38.466 168.672 38.2425C168.962 38.0071 169.15 37.9719 170.905 37.9719L170.919 39.3132C170.934 40.0545 170.876 40.7487 170.803 40.8546C170.745 40.9723 170.499 41.137 170.267 41.2194C170.02 41.3135 169.629 41.3606 169.339 41.3135C169.063 41.2782 168.759 41.1841 168.657 41.1017C168.57 41.0194 168.527 40.8781 168.585 40.7958C168.657 40.6664 168.759 40.6664 169.005 40.7605C169.194 40.8311 169.426 40.8899 169.542 40.8899C169.658 40.8899 169.861 40.8076 169.977 40.7134C170.107 40.6193 170.209 40.4428 170.209 40.3251C170.209 40.1722 170.18 40.1604 170.035 40.2663C169.933 40.3486 169.672 40.4193 169.455 40.4193C169.208 40.4193 168.904 40.3016 168.686 40.1251C168.381 39.878 168.323 39.7251 168.323 39.1838ZM176.648 38.7955C176.692 38.5837 176.909 38.3131 177.127 38.1836C177.344 38.0542 177.736 37.9483 178.026 37.9483C178.316 37.9483 178.693 38.0307 178.867 38.1248C179.055 38.219 179.273 38.5014 179.36 38.7367C179.476 39.0661 179.476 39.3015 179.36 39.6192C179.273 39.8662 179.055 40.1486 178.867 40.2427C178.693 40.3369 178.301 40.4193 177.997 40.4193C177.62 40.4193 177.359 40.3369 177.098 40.1251C176.895 39.9604 176.692 39.6898 176.648 39.5015C176.59 39.325 176.59 39.0073 176.648 38.7955ZM106.861 39.8898C106.832 39.7604 106.919 39.5956 107.064 39.5015C107.267 39.3956 108.746 39.3603 113.242 39.3603C116.897 39.3603 119.275 39.4074 119.449 39.478C119.609 39.5368 119.74 39.7015 119.74 39.8309C119.74 39.9839 119.594 40.1133 119.333 40.1957C119.087 40.2663 117.115 40.3016 113.721 40.2898C110.849 40.2781 108.137 40.231 107.702 40.1957C107.064 40.1369 106.905 40.0781 106.861 39.8898ZM185.277 39.8427C185.277 39.7839 185.379 39.6427 185.509 39.5486C185.712 39.3838 186.495 39.3603 191.76 39.3603C195.472 39.3603 197.88 39.4074 198.054 39.478C198.213 39.5368 198.344 39.7015 198.344 39.8309C198.344 39.9604 198.213 40.1251 198.054 40.1839C197.88 40.2545 195.472 40.3016 191.745 40.3016C186.582 40.3016 185.698 40.2781 185.509 40.1251C185.393 40.031 185.292 39.9015 185.277 39.8427ZM180.433 40.431C180.346 40.431 180.201 40.3486 180.1 40.2427C179.969 40.1133 179.969 40.0192 180.085 39.8898C180.172 39.7957 180.317 39.7133 180.419 39.7133C180.506 39.7015 180.665 39.7839 180.752 39.8898C180.897 40.031 180.897 40.1015 180.752 40.2427C180.665 40.3486 180.506 40.431 180.433 40.431ZM164.727 22.4053V24.0526C167.831 24.0526 168.324 24.0056 168.744 23.8526C169.136 23.6996 169.353 23.4996 169.556 23.1113C169.76 22.7113 169.803 22.4642 169.716 22.1112C169.658 21.8523 169.469 21.5111 169.295 21.3464C169.121 21.1816 168.672 20.9816 168.309 20.911C167.932 20.8287 166.975 20.7581 166.177 20.7581H164.727V22.4053ZM104.367 24.3232L103.439 26.7C106.484 26.7471 107.384 26.7471 107.398 26.7236C107.413 26.7118 107.021 25.6293 106.499 24.3232C105.991 23.0054 105.513 21.9347 105.44 21.9347C105.368 21.9347 104.889 23.0054 104.367 24.3232ZM151.399 24.3468C151.892 23.1113 152.313 22.0759 152.356 22.0288C152.385 21.97 152.443 21.9347 152.487 21.9347C152.53 21.9347 152.98 23.0054 153.502 24.3232C154.01 25.6293 154.43 26.7353 154.43 26.7942C154.43 26.8412 153.546 26.8765 152.472 26.8765C151.008 26.8765 150.514 26.8412 150.514 26.7353C150.514 26.653 150.921 25.5822 151.399 24.3468ZM180.927 24.4409L179.969 26.8177C183.044 26.8648 183.958 26.8648 183.972 26.8412C183.987 26.8295 183.581 25.747 183.073 24.4409C182.551 23.1231 182.072 22.0524 182.014 22.0524C181.942 22.0524 181.463 23.1231 180.927 24.4409ZM164.698 27.8414C164.684 26.8765 164.742 26.0529 164.814 26.0058C164.887 25.9588 165.757 25.9352 166.757 25.9588C167.976 25.9823 168.715 26.0529 168.991 26.1706C169.223 26.2647 169.556 26.5 169.716 26.6765C169.963 26.9354 170.021 27.1825 170.021 27.8178C170.021 28.5121 169.977 28.665 169.658 28.9356C169.455 29.1121 169.121 29.3239 168.889 29.4181C168.614 29.5357 167.947 29.5828 164.727 29.5828L164.698 27.8414ZM134.315 38.3958C134.213 38.6664 134.126 38.937 134.126 38.9958C134.126 39.0547 134.329 39.1135 134.562 39.1135C134.939 39.1135 134.982 39.0782 134.91 38.8546C134.852 38.7017 134.736 38.4311 134.649 38.2546L134.489 37.9251L134.315 38.3958ZM146.164 39.1723C146.149 38.9488 146.251 38.6899 146.396 38.584C146.526 38.4899 146.715 38.3958 146.831 38.3958C146.947 38.3958 147.135 38.5252 147.266 38.6664C147.382 38.8076 147.483 39.0311 147.483 39.1606C147.483 39.29 147.382 39.5253 147.266 39.6665C147.135 39.8077 146.947 39.9254 146.831 39.9254C146.7 39.9254 146.512 39.8548 146.396 39.7489C146.265 39.6548 146.164 39.3959 146.164 39.1723ZM169.31 38.584C169.165 38.6899 169.063 38.9488 169.078 39.1723C169.078 39.3959 169.179 39.6548 169.31 39.7489C169.426 39.8548 169.585 39.9254 169.673 39.9254C169.745 39.9254 169.905 39.9018 170.035 39.8665C170.18 39.8312 170.253 39.6312 170.253 39.1606C170.253 38.6899 170.18 38.5017 170.035 38.4546L169.983 38.4449L169.934 38.4355C169.83 38.4156 169.727 38.3958 169.673 38.3958C169.6 38.3958 169.44 38.4899 169.31 38.584ZM177.533 39.2076C177.504 38.9252 177.562 38.6311 177.663 38.5487C177.75 38.4664 177.925 38.3958 178.055 38.3958C178.186 38.3958 178.374 38.4546 178.476 38.5487C178.577 38.6311 178.65 38.9135 178.621 39.2076C178.592 39.5489 178.505 39.7724 178.331 39.8548C178.142 39.9489 178.012 39.9489 177.823 39.8548C177.649 39.7724 177.562 39.5489 177.533 39.2076ZM156.693 39.3724C156.519 39.4665 156.461 39.5959 156.519 39.7254C156.577 39.843 156.736 39.9254 156.867 39.9254C157.012 39.9254 157.215 39.8666 157.316 39.7842C157.403 39.7018 157.49 39.5489 157.49 39.4312C157.49 39.3135 157.374 39.2194 157.229 39.2194C157.084 39.2194 156.852 39.29 156.693 39.3724Z" fill="#102C37"/>
<defs>
<linearGradient id="paint0_linear_435_110" x1="9.91263" y1="52.3501" x2="9.91263" y2="54.7412" gradientUnits="userSpaceOnUse">
<stop offset="0.235" stop-color="#14495D"/>
<stop offset="1" stop-color="#45C4BE"/>
</linearGradient>
<linearGradient id="paint1_linear_435_110" x1="6.28001" y1="49.3174" x2="6.28001" y2="50.8232" gradientUnits="userSpaceOnUse">
<stop offset="0.235" stop-color="#14495D"/>
<stop offset="1" stop-color="#45C4BE"/>
</linearGradient>
<linearGradient id="paint2_linear_435_110" x1="36.9562" y1="46.6445" x2="36.9562" y2="55.6477" gradientUnits="userSpaceOnUse">
<stop offset="0.235" stop-color="#14495D"/>
<stop offset="1" stop-color="#45C4BE"/>
</linearGradient>
<linearGradient id="paint3_linear_435_110" x1="1.63949" y1="45.4763" x2="1.63949" y2="48.507" gradientUnits="userSpaceOnUse">
<stop offset="0.235" stop-color="#14495D"/>
<stop offset="1" stop-color="#45C4BE"/>
</linearGradient>
<linearGradient id="paint4_linear_435_110" x1="50.0125" y1="42.9807" x2="50.0125" y2="59.8763" gradientUnits="userSpaceOnUse">
<stop offset="0.235" stop-color="#14495D"/>
<stop offset="1" stop-color="#45C4BE"/>
</linearGradient>
<linearGradient id="paint5_linear_435_110" x1="41.8429" y1="35.6045" x2="41.8429" y2="56.9145" gradientUnits="userSpaceOnUse">
<stop offset="0.235" stop-color="#14495D"/>
<stop offset="1" stop-color="#45C4BE"/>
</linearGradient>
<linearGradient id="paint6_linear_435_110" x1="43.3816" y1="24.9119" x2="43.3816" y2="50.8794" gradientUnits="userSpaceOnUse">
<stop offset="0.235" stop-color="#14495D"/>
<stop offset="1" stop-color="#45C4BE"/>
</linearGradient>
<linearGradient id="paint7_linear_435_110" x1="44.658" y1="18.4302" x2="44.658" y2="44.3977" gradientUnits="userSpaceOnUse">
<stop offset="0.235" stop-color="#14495D"/>
<stop offset="1" stop-color="#45C4BE"/>
</linearGradient>
<linearGradient id="paint8_linear_435_110" x1="82.9047" y1="20.4004" x2="82.9047" y2="23.4087" gradientUnits="userSpaceOnUse">
<stop offset="0.235" stop-color="#14495D"/>
<stop offset="1" stop-color="#45C4BE"/>
</linearGradient>
<linearGradient id="paint9_linear_435_110" x1="77.8549" y1="20.1548" x2="77.8549" y2="22.4301" gradientUnits="userSpaceOnUse">
<stop offset="0.235" stop-color="#14495D"/>
<stop offset="1" stop-color="#45C4BE"/>
</linearGradient>
<linearGradient id="paint10_linear_435_110" x1="76.8261" y1="16.2515" x2="76.8261" y2="18.4087" gradientUnits="userSpaceOnUse">
<stop offset="0.235" stop-color="#14495D"/>
<stop offset="1" stop-color="#45C4BE"/>
</linearGradient>
<linearGradient id="paint11_linear_435_110" x1="80.8712" y1="15.8105" x2="80.8712" y2="18.2028" gradientUnits="userSpaceOnUse">
<stop offset="0.235" stop-color="#14495D"/>
<stop offset="1" stop-color="#45C4BE"/>
</linearGradient>
<linearGradient id="paint12_linear_435_110" x1="27" y1="6" x2="60" y2="32" gradientUnits="userSpaceOnUse">
<stop offset="0.235" stop-color="#14495D"/>
<stop offset="1" stop-color="#45C4BE"/>
</linearGradient>
</defs>
</svg>
