<svg width="101" height="24" viewBox="0 0 217 280" fill="none" xmlns="http://www.w3.org/2000/svg">
<path fill-rule="evenodd" clip-rule="evenodd" d="M79.0271 7.27626C74.6188 11.5928 70.8946 15.8191 70.2162 17.2756C69.0878 19.6984 69.0404 23.5898 69.0271 115.206C69.0157 191.072 69.1751 210.631 69.8042 210.701C70.2396 210.751 93.1634 210.725 120.747 210.646C148.331 210.567 170.899 210.745 170.899 211.041C170.899 211.338 167.833 214.627 164.086 218.351L157.273 225.121H105.551H53.8289L53.6688 130.082C53.5353 50.8639 53.3663 34.9957 52.6525 34.7586C51.5602 34.3952 2.575 83.7382 1.26567 86.4885C0.422101 88.2597 0.0215174 99.5742 0.011392 182.965L0 277.792L1.353 278.896C2.6212 279.931 6.6087 280 64.9902 280C119.614 280 127.564 279.881 129.627 279.029C132.469 277.857 148.083 262.51 148.083 260.902C148.083 259.631 147.717 260.29 64.7415 260.443L19.652 260.526V177.684V94.842L26.9296 87.6088L34.2072 80.3755V162.525V244.676H98.7817C161.37 244.676 163.428 244.638 165.704 243.457C166.995 242.786 178.973 231.331 192.322 218.001C210.061 200.285 216.529 193.442 216.36 192.569C216.136 191.407 214.371 191.369 152.383 191.213L88.6348 191.052L88.4747 95.7012C88.3443 17.9631 87.964 1.33167 87.964 0.0700927C87.964 -0.560706 83.2272 3.16476 79.0271 7.27626Z" fill="url(#paint0_linear_2_1832)"/>
<defs>
<linearGradient id="paint0_linear_2_1832" x1="85.1162" y1="1.97319e-06" x2="10.5786" y2="288.389" gradientUnits="userSpaceOnUse">
<stop stop-color="#E12A5E"/>
<stop offset="0.608206" stop-color="#CD2465"/>
<stop offset="1" stop-color="#A91A71"/>
</linearGradient>
</defs>
</svg>
